<mxfile host="app.diagrams.net" modified="2024-02-26T13:59:56.674Z" agent="Mozilla/5.0 (X11; Linux x86_64) AppleWebKit/537.36 (KHTML, like Gecko) QtWebEngine/6.6.2 Chrome/112.0.5615.213 Safari/537.36" etag="OLiYvQkRB2sqTui3Nsgf" version="23.1.6" type="device">
  <diagram name="Page-1" id="1cF8q0306JEqwwJTlGwe">
    <mxGraphModel dx="1032" dy="1233" grid="1" gridSize="10" guides="1" tooltips="1" connect="1" arrows="1" fold="1" page="1" pageScale="1" pageWidth="2336" pageHeight="1654" math="0" shadow="0">
      <root>
        <mxCell id="0" />
        <mxCell id="1" parent="0" />
        <mxCell id="9tAbXV2A5IAdRQd2oj-A-11" value="Koronakommisjonen Dokumentasjon" style="swimlane;fontStyle=0;childLayout=stackLayout;horizontal=1;startSize=26;fillColor=none;horizontalStack=0;resizeParent=1;resizeParentMax=0;resizeLast=0;collapsible=1;marginBottom=0;whiteSpace=wrap;html=1;" parent="1" vertex="1">
          <mxGeometry x="803" y="640" width="250" height="48" as="geometry">
            <mxRectangle x="920" y="610" width="150" height="30" as="alternateBounds" />
          </mxGeometry>
        </mxCell>
        <mxCell id="9tAbXV2A5IAdRQd2oj-A-12" value="rico:RecordSet" style="text;strokeColor=none;fillColor=none;align=center;verticalAlign=top;spacingLeft=4;spacingRight=4;overflow=hidden;rotatable=0;points=[[0,0.5],[1,0.5]];portConstraint=eastwest;whiteSpace=wrap;html=1;" parent="9tAbXV2A5IAdRQd2oj-A-11" vertex="1">
          <mxGeometry y="26" width="250" height="22" as="geometry" />
        </mxCell>
        <mxCell id="czsqDPXMuQd4v_eErH3M-3" value="rico:hasCreator" style="html=1;verticalAlign=bottom;endArrow=block;curved=0;rounded=0;exitX=0.5;exitY=1.182;exitDx=0;exitDy=0;exitPerimeter=0;entryX=0.292;entryY=0;entryDx=0;entryDy=0;entryPerimeter=0;" parent="1" target="czsqDPXMuQd4v_eErH3M-8" edge="1">
          <mxGeometry x="0.0001" width="80" relative="1" as="geometry">
            <mxPoint x="873" y="688.0039999999999" as="sourcePoint" />
            <mxPoint x="873" y="766" as="targetPoint" />
            <mxPoint as="offset" />
          </mxGeometry>
        </mxCell>
        <mxCell id="czsqDPXMuQd4v_eErH3M-8" value="Koronakommisjonen" style="swimlane;fontStyle=0;childLayout=stackLayout;horizontal=1;startSize=26;fillColor=none;horizontalStack=0;resizeParent=1;resizeParentMax=0;resizeLast=0;collapsible=1;marginBottom=0;whiteSpace=wrap;html=1;" parent="1" vertex="1">
          <mxGeometry x="733" y="800" width="250" height="70" as="geometry">
            <mxRectangle x="850" y="770" width="150" height="30" as="alternateBounds" />
          </mxGeometry>
        </mxCell>
        <mxCell id="czsqDPXMuQd4v_eErH3M-9" value="rico:CorporateBody" style="text;strokeColor=none;fillColor=none;align=center;verticalAlign=top;spacingLeft=4;spacingRight=4;overflow=hidden;rotatable=0;points=[[0,0.5],[1,0.5]];portConstraint=eastwest;whiteSpace=wrap;html=1;" parent="czsqDPXMuQd4v_eErH3M-8" vertex="1">
          <mxGeometry y="26" width="250" height="22" as="geometry" />
        </mxCell>
        <mxCell id="czsqDPXMuQd4v_eErH3M-10" value="rico:AgentName" style="text;strokeColor=none;fillColor=none;align=center;verticalAlign=top;spacingLeft=4;spacingRight=4;overflow=hidden;rotatable=0;points=[[0,0.5],[1,0.5]];portConstraint=eastwest;whiteSpace=wrap;html=1;" parent="czsqDPXMuQd4v_eErH3M-8" vertex="1">
          <mxGeometry y="48" width="250" height="22" as="geometry" />
        </mxCell>
        <mxCell id="czsqDPXMuQd4v_eErH3M-11" value="rico:hasSender" style="html=1;verticalAlign=bottom;endArrow=block;curved=0;rounded=0;exitX=0.5;exitY=1.182;exitDx=0;exitDy=0;exitPerimeter=0;entryX=0.75;entryY=0;entryDx=0;entryDy=0;" parent="1" target="czsqDPXMuQd4v_eErH3M-8" edge="1">
          <mxGeometry width="80" relative="1" as="geometry">
            <mxPoint x="993" y="688" as="sourcePoint" />
            <mxPoint x="993" y="766" as="targetPoint" />
          </mxGeometry>
        </mxCell>
        <mxCell id="czsqDPXMuQd4v_eErH3M-12" value="&lt;div style=&quot;text-align: left;&quot;&gt;&lt;font style=&quot;font-size: 12px;&quot;&gt;Dokumentasjon knyttet til kommisjonens møter (innkallinger, referater, oppsummeringsnotater), informasjon som kommisjonen har innhentet fra forvaltningen, gjennom innspill og intervjuer (stort volum), eksterne utredninger, rapporten med forarbeider, dokumentasjon knyttet til innsynsforespørsler. Administrasjon og økonomi ble håndtert av Statsministerens kontor.&lt;/font&gt;&lt;br&gt;&lt;/div&gt;" style="html=1;whiteSpace=wrap;perimeterSpacing=0;rounded=1;labelPadding=0;spacingLeft=10;spacingRight=10;" parent="1" vertex="1">
          <mxGeometry x="1393" y="450" width="340" height="140" as="geometry" />
        </mxCell>
        <mxCell id="czsqDPXMuQd4v_eErH3M-16" value="rico:scopeAndContent" style="html=1;verticalAlign=bottom;endArrow=block;curved=0;rounded=0;exitX=1;exitY=0.5;exitDx=0;exitDy=0;entryX=0;entryY=0.5;entryDx=0;entryDy=0;" parent="1" source="9tAbXV2A5IAdRQd2oj-A-11" target="czsqDPXMuQd4v_eErH3M-12" edge="1">
          <mxGeometry width="80" relative="1" as="geometry">
            <mxPoint x="1333" y="660" as="sourcePoint" />
            <mxPoint x="1393" y="644" as="targetPoint" />
          </mxGeometry>
        </mxCell>
        <mxCell id="czsqDPXMuQd4v_eErH3M-17" value="Covid-19" style="swimlane;fontStyle=0;childLayout=stackLayout;horizontal=1;startSize=26;fillColor=none;horizontalStack=0;resizeParent=1;resizeParentMax=0;resizeLast=0;collapsible=1;marginBottom=0;whiteSpace=wrap;html=1;" parent="1" vertex="1">
          <mxGeometry x="1243" y="346" width="250" height="48" as="geometry">
            <mxRectangle x="110" y="100" width="150" height="30" as="alternateBounds" />
          </mxGeometry>
        </mxCell>
        <mxCell id="czsqDPXMuQd4v_eErH3M-18" value="rico:Event" style="text;strokeColor=none;fillColor=none;align=center;verticalAlign=top;spacingLeft=4;spacingRight=4;overflow=hidden;rotatable=0;points=[[0,0.5],[1,0.5]];portConstraint=eastwest;whiteSpace=wrap;html=1;" parent="czsqDPXMuQd4v_eErH3M-17" vertex="1">
          <mxGeometry y="26" width="250" height="22" as="geometry" />
        </mxCell>
        <mxCell id="czsqDPXMuQd4v_eErH3M-19" value="rico:isAssociatedWithEvent" style="html=1;verticalAlign=bottom;endArrow=block;curved=0;rounded=0;exitX=0.75;exitY=0;exitDx=0;exitDy=0;entryX=0.452;entryY=1.045;entryDx=0;entryDy=0;entryPerimeter=0;" parent="1" source="9tAbXV2A5IAdRQd2oj-A-11" target="czsqDPXMuQd4v_eErH3M-18" edge="1">
          <mxGeometry x="0.0012" width="80" relative="1" as="geometry">
            <mxPoint x="1243" y="550" as="sourcePoint" />
            <mxPoint x="1423" y="550" as="targetPoint" />
            <mxPoint as="offset" />
          </mxGeometry>
        </mxCell>
        <mxCell id="czsqDPXMuQd4v_eErH3M-20" value="Norge" style="swimlane;fontStyle=0;childLayout=stackLayout;horizontal=1;startSize=26;fillColor=none;horizontalStack=0;resizeParent=1;resizeParentMax=0;resizeLast=0;collapsible=1;marginBottom=0;whiteSpace=wrap;html=1;" parent="1" vertex="1">
          <mxGeometry x="1463" y="910" width="250" height="48" as="geometry">
            <mxRectangle x="780" y="452" width="150" height="30" as="alternateBounds" />
          </mxGeometry>
        </mxCell>
        <mxCell id="czsqDPXMuQd4v_eErH3M-21" value="rico:Place" style="text;strokeColor=none;fillColor=none;align=center;verticalAlign=top;spacingLeft=4;spacingRight=4;overflow=hidden;rotatable=0;points=[[0,0.5],[1,0.5]];portConstraint=eastwest;whiteSpace=wrap;html=1;" parent="czsqDPXMuQd4v_eErH3M-20" vertex="1">
          <mxGeometry y="26" width="250" height="22" as="geometry" />
        </mxCell>
        <mxCell id="czsqDPXMuQd4v_eErH3M-22" value="rico:isAssociatedWithPlace" style="html=1;verticalAlign=bottom;endArrow=block;curved=0;rounded=0;exitX=0.968;exitY=1;exitDx=0;exitDy=0;entryX=0;entryY=0.25;entryDx=0;entryDy=0;exitPerimeter=0;" parent="1" source="9tAbXV2A5IAdRQd2oj-A-12" target="czsqDPXMuQd4v_eErH3M-20" edge="1">
          <mxGeometry x="0.0026" width="80" relative="1" as="geometry">
            <mxPoint x="1283" y="730" as="sourcePoint" />
            <mxPoint x="1458" y="609" as="targetPoint" />
            <mxPoint as="offset" />
          </mxGeometry>
        </mxCell>
        <mxCell id="czsqDPXMuQd4v_eErH3M-23" value="Norsk Bokmål" style="swimlane;fontStyle=0;childLayout=stackLayout;horizontal=1;startSize=26;fillColor=none;horizontalStack=0;resizeParent=1;resizeParentMax=0;resizeLast=0;collapsible=1;marginBottom=0;whiteSpace=wrap;html=1;" parent="1" vertex="1">
          <mxGeometry x="1233" y="1070" width="250" height="48" as="geometry">
            <mxRectangle x="1320" y="890" width="150" height="30" as="alternateBounds" />
          </mxGeometry>
        </mxCell>
        <mxCell id="czsqDPXMuQd4v_eErH3M-24" value="rico:Language" style="text;strokeColor=none;fillColor=none;align=center;verticalAlign=top;spacingLeft=4;spacingRight=4;overflow=hidden;rotatable=0;points=[[0,0.5],[1,0.5]];portConstraint=eastwest;whiteSpace=wrap;html=1;" parent="czsqDPXMuQd4v_eErH3M-23" vertex="1">
          <mxGeometry y="26" width="250" height="22" as="geometry" />
        </mxCell>
        <mxCell id="czsqDPXMuQd4v_eErH3M-25" value="rico:hasOrHadLanguage" style="html=1;verticalAlign=bottom;endArrow=block;curved=0;rounded=0;exitX=0.904;exitY=1.091;exitDx=0;exitDy=0;entryX=0.448;entryY=0.063;entryDx=0;entryDy=0;exitPerimeter=0;entryPerimeter=0;" parent="1" source="9tAbXV2A5IAdRQd2oj-A-12" target="czsqDPXMuQd4v_eErH3M-23" edge="1">
          <mxGeometry x="0.0026" width="80" relative="1" as="geometry">
            <mxPoint x="1155" y="712" as="sourcePoint" />
            <mxPoint x="1433" y="776" as="targetPoint" />
            <mxPoint as="offset" />
          </mxGeometry>
        </mxCell>
        <mxCell id="czsqDPXMuQd4v_eErH3M-26" value="rico:isOrWasLanguageOf" style="html=1;verticalAlign=bottom;endArrow=block;curved=0;rounded=0;exitX=0.536;exitY=0;exitDx=0;exitDy=0;exitPerimeter=0;" parent="1" source="czsqDPXMuQd4v_eErH3M-23" target="czsqDPXMuQd4v_eErH3M-21" edge="1">
          <mxGeometry x="0.0026" width="80" relative="1" as="geometry">
            <mxPoint x="1473" y="1030" as="sourcePoint" />
            <mxPoint x="1759" y="1263" as="targetPoint" />
            <mxPoint as="offset" />
          </mxGeometry>
        </mxCell>
        <mxCell id="czsqDPXMuQd4v_eErH3M-27" value="Country" style="swimlane;fontStyle=0;childLayout=stackLayout;horizontal=1;startSize=26;fillColor=none;horizontalStack=0;resizeParent=1;resizeParentMax=0;resizeLast=0;collapsible=1;marginBottom=0;whiteSpace=wrap;html=1;" parent="1" vertex="1">
          <mxGeometry x="1683" y="1060" width="250" height="48" as="geometry">
            <mxRectangle x="780" y="452" width="150" height="30" as="alternateBounds" />
          </mxGeometry>
        </mxCell>
        <mxCell id="czsqDPXMuQd4v_eErH3M-28" value="rico:PlaceType" style="text;strokeColor=none;fillColor=none;align=center;verticalAlign=top;spacingLeft=4;spacingRight=4;overflow=hidden;rotatable=0;points=[[0,0.5],[1,0.5]];portConstraint=eastwest;whiteSpace=wrap;html=1;" parent="czsqDPXMuQd4v_eErH3M-27" vertex="1">
          <mxGeometry y="26" width="250" height="22" as="geometry" />
        </mxCell>
        <mxCell id="czsqDPXMuQd4v_eErH3M-29" value="rico:hasOrHadPlaceType" style="html=1;verticalAlign=bottom;endArrow=block;curved=0;rounded=0;exitX=0.568;exitY=1.136;exitDx=0;exitDy=0;exitPerimeter=0;entryX=0.5;entryY=0;entryDx=0;entryDy=0;" parent="1" source="czsqDPXMuQd4v_eErH3M-21" target="czsqDPXMuQd4v_eErH3M-27" edge="1">
          <mxGeometry x="0.0026" width="80" relative="1" as="geometry">
            <mxPoint x="1613" y="1032" as="sourcePoint" />
            <mxPoint x="1813" y="1020" as="targetPoint" />
            <mxPoint as="offset" />
          </mxGeometry>
        </mxCell>
        <mxCell id="czsqDPXMuQd4v_eErH3M-30" value="Arkivverket" style="swimlane;fontStyle=0;childLayout=stackLayout;horizontal=1;startSize=26;fillColor=none;horizontalStack=0;resizeParent=1;resizeParentMax=0;resizeLast=0;collapsible=1;marginBottom=0;whiteSpace=wrap;html=1;" parent="1" vertex="1">
          <mxGeometry x="463" y="430" width="250" height="70" as="geometry">
            <mxRectangle x="390" y="430" width="150" height="30" as="alternateBounds" />
          </mxGeometry>
        </mxCell>
        <mxCell id="czsqDPXMuQd4v_eErH3M-31" value="rico:CorporateBody" style="text;strokeColor=none;fillColor=none;align=center;verticalAlign=top;spacingLeft=4;spacingRight=4;overflow=hidden;rotatable=0;points=[[0,0.5],[1,0.5]];portConstraint=eastwest;whiteSpace=wrap;html=1;" parent="czsqDPXMuQd4v_eErH3M-30" vertex="1">
          <mxGeometry y="26" width="250" height="22" as="geometry" />
        </mxCell>
        <mxCell id="czsqDPXMuQd4v_eErH3M-32" value="rico:AgentName" style="text;strokeColor=none;fillColor=none;align=center;verticalAlign=top;spacingLeft=4;spacingRight=4;overflow=hidden;rotatable=0;points=[[0,0.5],[1,0.5]];portConstraint=eastwest;whiteSpace=wrap;html=1;" parent="czsqDPXMuQd4v_eErH3M-30" vertex="1">
          <mxGeometry y="48" width="250" height="22" as="geometry" />
        </mxCell>
        <mxCell id="czsqDPXMuQd4v_eErH3M-33" value="Arkivvesenet" style="swimlane;fontStyle=0;childLayout=stackLayout;horizontal=1;startSize=26;fillColor=none;horizontalStack=0;resizeParent=1;resizeParentMax=0;resizeLast=0;collapsible=1;marginBottom=0;whiteSpace=wrap;html=1;" parent="1" vertex="1">
          <mxGeometry x="453" y="270" width="250" height="48" as="geometry">
            <mxRectangle x="390" y="430" width="150" height="30" as="alternateBounds" />
          </mxGeometry>
        </mxCell>
        <mxCell id="czsqDPXMuQd4v_eErH3M-35" value="rico:AgentName" style="text;strokeColor=none;fillColor=none;align=center;verticalAlign=top;spacingLeft=4;spacingRight=4;overflow=hidden;rotatable=0;points=[[0,0.5],[1,0.5]];portConstraint=eastwest;whiteSpace=wrap;html=1;" parent="czsqDPXMuQd4v_eErH3M-33" vertex="1">
          <mxGeometry y="26" width="250" height="22" as="geometry" />
        </mxCell>
        <mxCell id="czsqDPXMuQd4v_eErH3M-36" value="rico:followsInTime" style="html=1;verticalAlign=bottom;endArrow=block;curved=0;rounded=0;exitX=0.496;exitY=1.091;exitDx=0;exitDy=0;exitPerimeter=0;entryX=0.5;entryY=0;entryDx=0;entryDy=0;" parent="1" source="czsqDPXMuQd4v_eErH3M-35" target="czsqDPXMuQd4v_eErH3M-30" edge="1">
          <mxGeometry width="80" relative="1" as="geometry">
            <mxPoint x="673" y="420" as="sourcePoint" />
            <mxPoint x="647" y="490" as="targetPoint" />
            <mxPoint as="offset" />
          </mxGeometry>
        </mxCell>
        <mxCell id="czsqDPXMuQd4v_eErH3M-37" value="rico:hasOrHadHolder" style="html=1;verticalAlign=bottom;endArrow=block;curved=1;rounded=0;entryX=1;entryY=0.171;entryDx=0;entryDy=0;entryPerimeter=0;exitX=0.5;exitY=0;exitDx=0;exitDy=0;" parent="1" source="9tAbXV2A5IAdRQd2oj-A-11" target="czsqDPXMuQd4v_eErH3M-30" edge="1">
          <mxGeometry x="0.2129" y="10" width="80" relative="1" as="geometry">
            <mxPoint x="913" y="630" as="sourcePoint" />
            <mxPoint x="854" y="720" as="targetPoint" />
            <Array as="points">
              <mxPoint x="933" y="540" />
            </Array>
            <mxPoint as="offset" />
          </mxGeometry>
        </mxCell>
        <mxCell id="czsqDPXMuQd4v_eErH3M-38" value="rico:isOrWasUnderAuthorityOf" style="html=1;verticalAlign=bottom;endArrow=block;curved=1;rounded=0;exitX=-0.004;exitY=-0.045;exitDx=0;exitDy=0;exitPerimeter=0;entryX=0.5;entryY=1.318;entryDx=0;entryDy=0;entryPerimeter=0;" parent="1" source="9tAbXV2A5IAdRQd2oj-A-12" target="czsqDPXMuQd4v_eErH3M-32" edge="1">
          <mxGeometry x="0.374" y="-6" width="80" relative="1" as="geometry">
            <mxPoint x="738" y="708" as="sourcePoint" />
            <mxPoint x="583" y="580" as="targetPoint" />
            <Array as="points">
              <mxPoint x="673" y="660" />
            </Array>
            <mxPoint as="offset" />
          </mxGeometry>
        </mxCell>
        <mxCell id="czsqDPXMuQd4v_eErH3M-39" value="&lt;div style=&quot;text-align: left;&quot;&gt;National Archives of Norway&lt;/div&gt;" style="html=1;whiteSpace=wrap;perimeterSpacing=0;rounded=1;labelPadding=0;spacingLeft=0;arcSize=50;" parent="1" vertex="1">
          <mxGeometry x="143" y="380" width="190" height="30" as="geometry" />
        </mxCell>
        <mxCell id="czsqDPXMuQd4v_eErH3M-40" value="rico:name" style="html=1;verticalAlign=bottom;endArrow=block;curved=0;rounded=0;exitX=-0.004;exitY=-0.182;exitDx=0;exitDy=0;exitPerimeter=0;entryX=1;entryY=0.5;entryDx=0;entryDy=0;" parent="1" source="czsqDPXMuQd4v_eErH3M-32" target="czsqDPXMuQd4v_eErH3M-39" edge="1">
          <mxGeometry x="0.1193" y="4" width="80" relative="1" as="geometry">
            <mxPoint x="443" y="530" as="sourcePoint" />
            <mxPoint x="444" y="660" as="targetPoint" />
            <mxPoint y="-1" as="offset" />
          </mxGeometry>
        </mxCell>
        <mxCell id="czsqDPXMuQd4v_eErH3M-41" value="&lt;div style=&quot;text-align: left;&quot;&gt;&lt;a href=&quot;https://forvaltningsdatabasen.sikt.no/data/enhet/55009&quot;&gt;https://forvaltningsdatabasen.sikt.no/data/enhet/55009&lt;/a&gt;&lt;br&gt;&lt;/div&gt;" style="html=1;whiteSpace=wrap;perimeterSpacing=0;rounded=1;labelPadding=0;spacingLeft=0;arcSize=50;" parent="1" vertex="1">
          <mxGeometry x="133" y="580" width="350" height="30" as="geometry" />
        </mxCell>
        <mxCell id="czsqDPXMuQd4v_eErH3M-42" value="rdfs:isDefinedBy" style="html=1;verticalAlign=bottom;endArrow=block;curved=1;rounded=0;exitX=-0.024;exitY=0.773;exitDx=0;exitDy=0;exitPerimeter=0;entryX=0.543;entryY=0;entryDx=0;entryDy=0;entryPerimeter=0;" parent="1" source="czsqDPXMuQd4v_eErH3M-32" target="czsqDPXMuQd4v_eErH3M-41" edge="1">
          <mxGeometry x="0.0137" y="21" width="80" relative="1" as="geometry">
            <mxPoint x="473" y="600" as="sourcePoint" />
            <mxPoint x="344" y="601" as="targetPoint" />
            <Array as="points">
              <mxPoint x="353" y="500" />
            </Array>
            <mxPoint as="offset" />
          </mxGeometry>
        </mxCell>
        <mxCell id="czsqDPXMuQd4v_eErH3M-43" value="Initiation of Koronakommisjonen" style="swimlane;fontStyle=0;childLayout=stackLayout;horizontal=1;startSize=26;fillColor=none;horizontalStack=0;resizeParent=1;resizeParentMax=0;resizeLast=0;collapsible=1;marginBottom=0;whiteSpace=wrap;html=1;" parent="1" vertex="1">
          <mxGeometry x="253" y="750" width="260" height="50" as="geometry">
            <mxRectangle x="390" y="430" width="150" height="30" as="alternateBounds" />
          </mxGeometry>
        </mxCell>
        <mxCell id="czsqDPXMuQd4v_eErH3M-44" value="rico:Date" style="text;strokeColor=none;fillColor=none;align=center;verticalAlign=top;spacingLeft=4;spacingRight=4;overflow=hidden;rotatable=0;points=[[0,0.5],[1,0.5]];portConstraint=eastwest;whiteSpace=wrap;html=1;" parent="czsqDPXMuQd4v_eErH3M-43" vertex="1">
          <mxGeometry y="26" width="260" height="24" as="geometry" />
        </mxCell>
        <mxCell id="czsqDPXMuQd4v_eErH3M-45" value="rico:hasBeginningDate" style="html=1;verticalAlign=bottom;endArrow=block;curved=0;rounded=0;entryX=1;entryY=0.25;entryDx=0;entryDy=0;exitX=-0.012;exitY=0.227;exitDx=0;exitDy=0;exitPerimeter=0;" parent="1" source="czsqDPXMuQd4v_eErH3M-9" target="czsqDPXMuQd4v_eErH3M-43" edge="1">
          <mxGeometry x="-0.105" width="80" relative="1" as="geometry">
            <mxPoint x="803" y="810" as="sourcePoint" />
            <mxPoint x="673" y="840" as="targetPoint" />
            <mxPoint as="offset" />
          </mxGeometry>
        </mxCell>
        <mxCell id="czsqDPXMuQd4v_eErH3M-47" value="rico:hasBeginningDate" style="html=1;verticalAlign=bottom;endArrow=block;curved=1;rounded=0;entryX=0.846;entryY=-0.02;entryDx=0;entryDy=0;exitX=0.016;exitY=-0.045;exitDx=0;exitDy=0;exitPerimeter=0;entryPerimeter=0;" parent="1" source="9tAbXV2A5IAdRQd2oj-A-12" target="czsqDPXMuQd4v_eErH3M-43" edge="1">
          <mxGeometry x="0.0508" y="16" width="80" relative="1" as="geometry">
            <mxPoint x="603" y="710" as="sourcePoint" />
            <mxPoint x="416" y="678" as="targetPoint" />
            <Array as="points">
              <mxPoint x="593" y="700" />
            </Array>
            <mxPoint as="offset" />
          </mxGeometry>
        </mxCell>
        <mxCell id="czsqDPXMuQd4v_eErH3M-48" value="Closing of Koronakommisjonen" style="swimlane;fontStyle=0;childLayout=stackLayout;horizontal=1;startSize=26;fillColor=none;horizontalStack=0;resizeParent=1;resizeParentMax=0;resizeLast=0;collapsible=1;marginBottom=0;whiteSpace=wrap;html=1;" parent="1" vertex="1">
          <mxGeometry x="873" y="1000" width="260" height="50" as="geometry">
            <mxRectangle x="990" y="970" width="150" height="30" as="alternateBounds" />
          </mxGeometry>
        </mxCell>
        <mxCell id="czsqDPXMuQd4v_eErH3M-49" value="rico:Date" style="text;strokeColor=none;fillColor=none;align=center;verticalAlign=top;spacingLeft=4;spacingRight=4;overflow=hidden;rotatable=0;points=[[0,0.5],[1,0.5]];portConstraint=eastwest;whiteSpace=wrap;html=1;" parent="czsqDPXMuQd4v_eErH3M-48" vertex="1">
          <mxGeometry y="26" width="260" height="24" as="geometry" />
        </mxCell>
        <mxCell id="czsqDPXMuQd4v_eErH3M-50" value="rico:hasEndDate" style="html=1;verticalAlign=bottom;endArrow=block;curved=0;rounded=0;exitX=0.84;exitY=1.091;exitDx=0;exitDy=0;exitPerimeter=0;entryX=0.835;entryY=-0.02;entryDx=0;entryDy=0;entryPerimeter=0;" parent="1" source="9tAbXV2A5IAdRQd2oj-A-12" target="czsqDPXMuQd4v_eErH3M-48" edge="1">
          <mxGeometry x="0.0016" width="80" relative="1" as="geometry">
            <mxPoint x="1033" y="800" as="sourcePoint" />
            <mxPoint x="1033" y="960" as="targetPoint" />
            <mxPoint as="offset" />
          </mxGeometry>
        </mxCell>
        <mxCell id="czsqDPXMuQd4v_eErH3M-51" value="rico:hasEndDate" style="html=1;verticalAlign=bottom;endArrow=block;curved=0;rounded=0;exitX=0.54;exitY=1;exitDx=0;exitDy=0;exitPerimeter=0;entryX=0.135;entryY=-0.06;entryDx=0;entryDy=0;entryPerimeter=0;" parent="1" source="czsqDPXMuQd4v_eErH3M-10" target="czsqDPXMuQd4v_eErH3M-48" edge="1">
          <mxGeometry x="0.0016" width="80" relative="1" as="geometry">
            <mxPoint x="893" y="900" as="sourcePoint" />
            <mxPoint x="970" y="1177" as="targetPoint" />
            <mxPoint as="offset" />
          </mxGeometry>
        </mxCell>
        <mxCell id="czsqDPXMuQd4v_eErH3M-52" value="&lt;div style=&quot;text-align: left;&quot;&gt;2020-04-24&lt;/div&gt;" style="html=1;whiteSpace=wrap;perimeterSpacing=0;rounded=1;labelPadding=0;spacingLeft=0;arcSize=50;" parent="1" vertex="1">
          <mxGeometry x="243" y="900" width="190" height="30" as="geometry" />
        </mxCell>
        <mxCell id="czsqDPXMuQd4v_eErH3M-53" value="rico:normalizedDateValue" style="html=1;verticalAlign=bottom;endArrow=block;curved=0;rounded=0;entryX=0.5;entryY=0;entryDx=0;entryDy=0;exitX=0.619;exitY=0.917;exitDx=0;exitDy=0;exitPerimeter=0;" parent="1" source="czsqDPXMuQd4v_eErH3M-44" target="czsqDPXMuQd4v_eErH3M-52" edge="1">
          <mxGeometry x="0.0569" width="80" relative="1" as="geometry">
            <mxPoint x="383" y="830" as="sourcePoint" />
            <mxPoint x="236" y="828" as="targetPoint" />
            <mxPoint as="offset" />
          </mxGeometry>
        </mxCell>
        <mxCell id="czsqDPXMuQd4v_eErH3M-55" value="&lt;div style=&quot;text-align: left;&quot;&gt;2022-05-06&lt;/div&gt;" style="html=1;whiteSpace=wrap;perimeterSpacing=0;rounded=1;labelPadding=0;spacingLeft=0;arcSize=50;" parent="1" vertex="1">
          <mxGeometry x="903" y="1130" width="190" height="30" as="geometry" />
        </mxCell>
        <mxCell id="czsqDPXMuQd4v_eErH3M-56" value="rico:normalizedDateValue" style="html=1;verticalAlign=bottom;endArrow=block;curved=0;rounded=0;entryX=0.432;entryY=0;entryDx=0;entryDy=0;exitX=0.427;exitY=1.042;exitDx=0;exitDy=0;exitPerimeter=0;entryPerimeter=0;" parent="1" source="czsqDPXMuQd4v_eErH3M-49" target="czsqDPXMuQd4v_eErH3M-55" edge="1">
          <mxGeometry x="0.07" y="1" width="80" relative="1" as="geometry">
            <mxPoint x="983" y="1090" as="sourcePoint" />
            <mxPoint x="887" y="1194" as="targetPoint" />
            <mxPoint y="-1" as="offset" />
          </mxGeometry>
        </mxCell>
        <mxCell id="3fLlHfyGAeuBOlRW-uyx-2" value="Sharepoint" style="swimlane;fontStyle=0;childLayout=stackLayout;horizontal=1;startSize=26;fillColor=none;horizontalStack=0;resizeParent=1;resizeParentMax=0;resizeLast=0;collapsible=1;marginBottom=0;whiteSpace=wrap;html=1;" parent="1" vertex="1">
          <mxGeometry x="883" y="324" width="250" height="48" as="geometry">
            <mxRectangle x="110" y="100" width="150" height="30" as="alternateBounds" />
          </mxGeometry>
        </mxCell>
        <mxCell id="3fLlHfyGAeuBOlRW-uyx-3" value="rico:Mechanism" style="text;strokeColor=none;fillColor=none;align=center;verticalAlign=top;spacingLeft=4;spacingRight=4;overflow=hidden;rotatable=0;points=[[0,0.5],[1,0.5]];portConstraint=eastwest;whiteSpace=wrap;html=1;" parent="3fLlHfyGAeuBOlRW-uyx-2" vertex="1">
          <mxGeometry y="26" width="250" height="22" as="geometry" />
        </mxCell>
        <mxCell id="3fLlHfyGAeuBOlRW-uyx-4" value="rico:hasOrganicOrFunctionalProvenance" style="html=1;verticalAlign=bottom;endArrow=block;curved=0;rounded=0;exitX=0.688;exitY=0.063;exitDx=0;exitDy=0;exitPerimeter=0;entryX=0.588;entryY=1.091;entryDx=0;entryDy=0;entryPerimeter=0;" parent="1" source="9tAbXV2A5IAdRQd2oj-A-11" target="3fLlHfyGAeuBOlRW-uyx-3" edge="1">
          <mxGeometry x="0.437" y="1" width="80" relative="1" as="geometry">
            <mxPoint x="993" y="550" as="sourcePoint" />
            <mxPoint x="983" y="470" as="targetPoint" />
            <mxPoint as="offset" />
          </mxGeometry>
        </mxCell>
        <mxCell id="3fLlHfyGAeuBOlRW-uyx-6" value="Kongelig Resolusjon Koronakommisjonen" style="swimlane;fontStyle=0;childLayout=stackLayout;horizontal=1;startSize=26;fillColor=none;horizontalStack=0;resizeParent=1;resizeParentMax=0;resizeLast=0;collapsible=1;marginBottom=0;whiteSpace=wrap;html=1;" parent="1" vertex="1">
          <mxGeometry x="303" y="1013" width="280" height="50" as="geometry">
            <mxRectangle x="390" y="430" width="150" height="30" as="alternateBounds" />
          </mxGeometry>
        </mxCell>
        <mxCell id="3fLlHfyGAeuBOlRW-uyx-7" value="rico:Rule" style="text;strokeColor=none;fillColor=none;align=center;verticalAlign=top;spacingLeft=4;spacingRight=4;overflow=hidden;rotatable=0;points=[[0,0.5],[1,0.5]];portConstraint=eastwest;whiteSpace=wrap;html=1;" parent="3fLlHfyGAeuBOlRW-uyx-6" vertex="1">
          <mxGeometry y="26" width="280" height="24" as="geometry" />
        </mxCell>
        <mxCell id="3fLlHfyGAeuBOlRW-uyx-8" value="rico:occurredAtDate" style="html=1;verticalAlign=bottom;endArrow=block;curved=1;rounded=0;entryX=0.785;entryY=0.958;entryDx=0;entryDy=0;exitX=0.75;exitY=0;exitDx=0;exitDy=0;entryPerimeter=0;" parent="1" source="3fLlHfyGAeuBOlRW-uyx-6" target="czsqDPXMuQd4v_eErH3M-44" edge="1">
          <mxGeometry x="-0.0603" y="7" width="80" relative="1" as="geometry">
            <mxPoint x="523" y="950" as="sourcePoint" />
            <mxPoint x="447" y="1052" as="targetPoint" />
            <mxPoint as="offset" />
            <Array as="points">
              <mxPoint x="553" y="900" />
            </Array>
          </mxGeometry>
        </mxCell>
        <mxCell id="3fLlHfyGAeuBOlRW-uyx-9" value="rico:isOrWasRegulatedBy" style="html=1;verticalAlign=bottom;endArrow=block;curved=0;rounded=0;entryX=0.879;entryY=-0.02;entryDx=0;entryDy=0;exitX=0.028;exitY=1.045;exitDx=0;exitDy=0;exitPerimeter=0;entryPerimeter=0;" parent="1" source="czsqDPXMuQd4v_eErH3M-10" target="3fLlHfyGAeuBOlRW-uyx-6" edge="1">
          <mxGeometry x="-0.1067" width="80" relative="1" as="geometry">
            <mxPoint x="723" y="970" as="sourcePoint" />
            <mxPoint x="506" y="902" as="targetPoint" />
            <mxPoint as="offset" />
          </mxGeometry>
        </mxCell>
        <mxCell id="3fLlHfyGAeuBOlRW-uyx-11" value="Kongelig Resolusjon" style="swimlane;fontStyle=0;childLayout=stackLayout;horizontal=1;startSize=26;fillColor=none;horizontalStack=0;resizeParent=1;resizeParentMax=0;resizeLast=0;collapsible=1;marginBottom=0;whiteSpace=wrap;html=1;" parent="1" vertex="1">
          <mxGeometry x="303" y="1150" width="280" height="50" as="geometry">
            <mxRectangle x="390" y="430" width="150" height="30" as="alternateBounds" />
          </mxGeometry>
        </mxCell>
        <mxCell id="3fLlHfyGAeuBOlRW-uyx-12" value="rico:RuleType" style="text;strokeColor=none;fillColor=none;align=center;verticalAlign=top;spacingLeft=4;spacingRight=4;overflow=hidden;rotatable=0;points=[[0,0.5],[1,0.5]];portConstraint=eastwest;whiteSpace=wrap;html=1;" parent="3fLlHfyGAeuBOlRW-uyx-11" vertex="1">
          <mxGeometry y="26" width="280" height="24" as="geometry" />
        </mxCell>
        <mxCell id="3fLlHfyGAeuBOlRW-uyx-13" value="rico:hasOrHadRuleType" style="html=1;verticalAlign=bottom;endArrow=block;curved=0;rounded=0;entryX=0.5;entryY=0;entryDx=0;entryDy=0;exitX=0.496;exitY=1.25;exitDx=0;exitDy=0;exitPerimeter=0;" parent="1" source="3fLlHfyGAeuBOlRW-uyx-7" target="3fLlHfyGAeuBOlRW-uyx-11" edge="1">
          <mxGeometry x="-0.1112" width="80" relative="1" as="geometry">
            <mxPoint x="443" y="1100" as="sourcePoint" />
            <mxPoint x="252" y="1241" as="targetPoint" />
            <mxPoint as="offset" />
          </mxGeometry>
        </mxCell>
        <mxCell id="3fLlHfyGAeuBOlRW-uyx-14" value="Koronakommisjonen Dokumentasjon Stored Instantiation" style="swimlane;fontStyle=0;childLayout=stackLayout;horizontal=1;startSize=26;fillColor=none;horizontalStack=0;resizeParent=1;resizeParentMax=0;resizeLast=0;collapsible=1;marginBottom=0;whiteSpace=wrap;html=1;spacingTop=3;spacingBottom=3;spacing=1;" parent="1" vertex="1">
          <mxGeometry x="1373" y="660" width="230" height="50" as="geometry">
            <mxRectangle x="390" y="430" width="150" height="30" as="alternateBounds" />
          </mxGeometry>
        </mxCell>
        <mxCell id="3fLlHfyGAeuBOlRW-uyx-15" value="rico:Instantiation" style="text;strokeColor=none;fillColor=none;align=center;verticalAlign=top;spacingLeft=4;spacingRight=4;overflow=hidden;rotatable=0;points=[[0,0.5],[1,0.5]];portConstraint=eastwest;whiteSpace=wrap;html=1;" parent="3fLlHfyGAeuBOlRW-uyx-14" vertex="1">
          <mxGeometry y="26" width="230" height="24" as="geometry" />
        </mxCell>
        <mxCell id="3fLlHfyGAeuBOlRW-uyx-16" value="rico:hasOrHadDigitalInstantiation" style="html=1;verticalAlign=bottom;endArrow=block;curved=0;rounded=0;exitX=0.98;exitY=0.136;exitDx=0;exitDy=0;entryX=0.022;entryY=0.042;entryDx=0;entryDy=0;entryPerimeter=0;exitPerimeter=0;" parent="1" source="9tAbXV2A5IAdRQd2oj-A-12" target="3fLlHfyGAeuBOlRW-uyx-15" edge="1">
          <mxGeometry x="-0.0008" width="80" relative="1" as="geometry">
            <mxPoint x="1093" y="667" as="sourcePoint" />
            <mxPoint x="1433" y="523" as="targetPoint" />
            <mxPoint as="offset" />
          </mxGeometry>
        </mxCell>
        <mxCell id="3fLlHfyGAeuBOlRW-uyx-17" value="Koronakommisjonen Dokumentasjon Storage ID" style="swimlane;fontStyle=0;childLayout=stackLayout;horizontal=1;startSize=26;fillColor=none;horizontalStack=0;resizeParent=1;resizeParentMax=0;resizeLast=0;collapsible=1;marginBottom=0;whiteSpace=wrap;html=1;spacingTop=3;spacingBottom=3;spacing=1;" parent="1" vertex="1">
          <mxGeometry x="1813" y="580" width="230" height="50" as="geometry">
            <mxRectangle x="390" y="430" width="150" height="30" as="alternateBounds" />
          </mxGeometry>
        </mxCell>
        <mxCell id="3fLlHfyGAeuBOlRW-uyx-18" value="rico:Identifier" style="text;strokeColor=none;fillColor=none;align=center;verticalAlign=top;spacingLeft=4;spacingRight=4;overflow=hidden;rotatable=0;points=[[0,0.5],[1,0.5]];portConstraint=eastwest;whiteSpace=wrap;html=1;" parent="3fLlHfyGAeuBOlRW-uyx-17" vertex="1">
          <mxGeometry y="26" width="230" height="24" as="geometry" />
        </mxCell>
        <mxCell id="3fLlHfyGAeuBOlRW-uyx-19" value="rico:hasOrHadIdentifier" style="html=1;verticalAlign=bottom;endArrow=block;curved=0;rounded=0;exitX=0.996;exitY=0.042;exitDx=0;exitDy=0;entryX=0;entryY=0.5;entryDx=0;entryDy=0;exitPerimeter=0;" parent="1" source="3fLlHfyGAeuBOlRW-uyx-15" target="3fLlHfyGAeuBOlRW-uyx-17" edge="1">
          <mxGeometry x="-0.0008" width="80" relative="1" as="geometry">
            <mxPoint x="1663" y="690" as="sourcePoint" />
            <mxPoint x="1993" y="708" as="targetPoint" />
            <mxPoint as="offset" />
          </mxGeometry>
        </mxCell>
        <mxCell id="3fLlHfyGAeuBOlRW-uyx-20" value="Koronakommisjonen Dokumentasjon Tar File Size" style="swimlane;fontStyle=0;childLayout=stackLayout;horizontal=1;startSize=26;fillColor=none;horizontalStack=0;resizeParent=1;resizeParentMax=0;resizeLast=0;collapsible=1;marginBottom=0;whiteSpace=wrap;html=1;spacingTop=3;spacingBottom=3;spacing=1;" parent="1" vertex="1">
          <mxGeometry x="1573" y="776" width="230" height="50" as="geometry">
            <mxRectangle x="390" y="430" width="150" height="30" as="alternateBounds" />
          </mxGeometry>
        </mxCell>
        <mxCell id="3fLlHfyGAeuBOlRW-uyx-21" value="rico:InstantiationExtent" style="text;strokeColor=none;fillColor=none;align=center;verticalAlign=top;spacingLeft=4;spacingRight=4;overflow=hidden;rotatable=0;points=[[0,0.5],[1,0.5]];portConstraint=eastwest;whiteSpace=wrap;html=1;" parent="3fLlHfyGAeuBOlRW-uyx-20" vertex="1">
          <mxGeometry y="26" width="230" height="24" as="geometry" />
        </mxCell>
        <mxCell id="3fLlHfyGAeuBOlRW-uyx-22" value="rico:hasExtent" style="html=1;verticalAlign=bottom;endArrow=block;curved=1;rounded=0;exitX=0.3;exitY=1;exitDx=0;exitDy=0;exitPerimeter=0;entryX=-0.013;entryY=0.208;entryDx=0;entryDy=0;entryPerimeter=0;" parent="1" source="3fLlHfyGAeuBOlRW-uyx-15" target="3fLlHfyGAeuBOlRW-uyx-21" edge="1">
          <mxGeometry x="0.003" width="80" relative="1" as="geometry">
            <mxPoint x="1483" y="750" as="sourcePoint" />
            <mxPoint x="1573" y="800" as="targetPoint" />
            <Array as="points">
              <mxPoint x="1463" y="770" />
            </Array>
            <mxPoint as="offset" />
          </mxGeometry>
        </mxCell>
        <mxCell id="3fLlHfyGAeuBOlRW-uyx-23" value="Storage ID" style="swimlane;fontStyle=0;childLayout=stackLayout;horizontal=1;startSize=26;fillColor=none;horizontalStack=0;resizeParent=1;resizeParentMax=0;resizeLast=0;collapsible=1;marginBottom=0;whiteSpace=wrap;html=1;spacingTop=3;spacingBottom=3;spacing=1;" parent="1" vertex="1">
          <mxGeometry x="1913" y="440" width="180" height="50" as="geometry">
            <mxRectangle x="390" y="430" width="150" height="30" as="alternateBounds" />
          </mxGeometry>
        </mxCell>
        <mxCell id="3fLlHfyGAeuBOlRW-uyx-24" value="rico:IdentifierType" style="text;strokeColor=none;fillColor=none;align=center;verticalAlign=top;spacingLeft=4;spacingRight=4;overflow=hidden;rotatable=0;points=[[0,0.5],[1,0.5]];portConstraint=eastwest;whiteSpace=wrap;html=1;" parent="3fLlHfyGAeuBOlRW-uyx-23" vertex="1">
          <mxGeometry y="26" width="180" height="24" as="geometry" />
        </mxCell>
        <mxCell id="3fLlHfyGAeuBOlRW-uyx-25" value="rico:hasIdentifierType" style="html=1;verticalAlign=bottom;endArrow=block;curved=0;rounded=0;exitX=0.474;exitY=-0.04;exitDx=0;exitDy=0;entryX=0.594;entryY=1.083;entryDx=0;entryDy=0;exitPerimeter=0;entryPerimeter=0;" parent="1" source="3fLlHfyGAeuBOlRW-uyx-17" target="3fLlHfyGAeuBOlRW-uyx-24" edge="1">
          <mxGeometry x="-0.0008" width="80" relative="1" as="geometry">
            <mxPoint x="1993" y="550" as="sourcePoint" />
            <mxPoint x="2194" y="518" as="targetPoint" />
            <mxPoint as="offset" />
          </mxGeometry>
        </mxCell>
        <mxCell id="3fLlHfyGAeuBOlRW-uyx-26" value="&lt;div style=&quot;text-align: left;&quot;&gt;96e28e3a-94fd-49e9-af7c-be6c8f60c141&lt;br&gt;&lt;/div&gt;" style="html=1;whiteSpace=wrap;perimeterSpacing=0;rounded=1;labelPadding=0;spacingLeft=0;arcSize=50;" parent="1" vertex="1">
          <mxGeometry x="1973" y="690" width="230" height="30" as="geometry" />
        </mxCell>
        <mxCell id="3fLlHfyGAeuBOlRW-uyx-27" value="rico:identifier" style="html=1;verticalAlign=bottom;endArrow=block;curved=1;rounded=0;exitX=0.322;exitY=1;exitDx=0;exitDy=0;entryX=0.043;entryY=-0.133;entryDx=0;entryDy=0;exitPerimeter=0;entryPerimeter=0;" parent="1" source="3fLlHfyGAeuBOlRW-uyx-18" target="3fLlHfyGAeuBOlRW-uyx-26" edge="1">
          <mxGeometry x="-0.1035" y="6" width="80" relative="1" as="geometry">
            <mxPoint x="1923" y="660" as="sourcePoint" />
            <mxPoint x="2021" y="574" as="targetPoint" />
            <Array as="points">
              <mxPoint x="1913" y="680" />
            </Array>
            <mxPoint as="offset" />
          </mxGeometry>
        </mxCell>
        <mxCell id="3fLlHfyGAeuBOlRW-uyx-28" value="Bytes" style="swimlane;fontStyle=0;childLayout=stackLayout;horizontal=1;startSize=26;fillColor=none;horizontalStack=0;resizeParent=1;resizeParentMax=0;resizeLast=0;collapsible=1;marginBottom=0;whiteSpace=wrap;html=1;spacingTop=3;spacingBottom=3;spacing=1;" parent="1" vertex="1">
          <mxGeometry x="2023" y="776" width="180" height="50" as="geometry">
            <mxRectangle x="390" y="430" width="150" height="30" as="alternateBounds" />
          </mxGeometry>
        </mxCell>
        <mxCell id="3fLlHfyGAeuBOlRW-uyx-29" value="rico:UnitOfMeasurement" style="text;strokeColor=none;fillColor=none;align=center;verticalAlign=top;spacingLeft=4;spacingRight=4;overflow=hidden;rotatable=0;points=[[0,0.5],[1,0.5]];portConstraint=eastwest;whiteSpace=wrap;html=1;" parent="3fLlHfyGAeuBOlRW-uyx-28" vertex="1">
          <mxGeometry y="26" width="180" height="24" as="geometry" />
        </mxCell>
        <mxCell id="3fLlHfyGAeuBOlRW-uyx-30" value="rico:hasUnitOfMeasurement" style="html=1;verticalAlign=bottom;endArrow=block;curved=0;rounded=0;exitX=1.022;exitY=0;exitDx=0;exitDy=0;entryX=-0.006;entryY=0.167;entryDx=0;entryDy=0;exitPerimeter=0;entryPerimeter=0;" parent="1" source="3fLlHfyGAeuBOlRW-uyx-21" target="3fLlHfyGAeuBOlRW-uyx-29" edge="1">
          <mxGeometry x="-0.2306" y="5" width="80" relative="1" as="geometry">
            <mxPoint x="1843" y="800" as="sourcePoint" />
            <mxPoint x="2054" y="718" as="targetPoint" />
            <mxPoint as="offset" />
          </mxGeometry>
        </mxCell>
        <mxCell id="3fLlHfyGAeuBOlRW-uyx-31" value="FileSize" style="swimlane;fontStyle=0;childLayout=stackLayout;horizontal=1;startSize=26;fillColor=none;horizontalStack=0;resizeParent=1;resizeParentMax=0;resizeLast=0;collapsible=1;marginBottom=0;whiteSpace=wrap;html=1;spacingTop=3;spacingBottom=3;spacing=1;" parent="1" vertex="1">
          <mxGeometry x="1998" y="870" width="180" height="50" as="geometry">
            <mxRectangle x="390" y="430" width="150" height="30" as="alternateBounds" />
          </mxGeometry>
        </mxCell>
        <mxCell id="3fLlHfyGAeuBOlRW-uyx-32" value="rico:ExtentType" style="text;strokeColor=none;fillColor=none;align=center;verticalAlign=top;spacingLeft=4;spacingRight=4;overflow=hidden;rotatable=0;points=[[0,0.5],[1,0.5]];portConstraint=eastwest;whiteSpace=wrap;html=1;" parent="3fLlHfyGAeuBOlRW-uyx-31" vertex="1">
          <mxGeometry y="26" width="180" height="24" as="geometry" />
        </mxCell>
        <mxCell id="3fLlHfyGAeuBOlRW-uyx-33" value="rico:hasExtentType" style="html=1;verticalAlign=bottom;endArrow=block;curved=0;rounded=0;exitX=0.496;exitY=1.125;exitDx=0;exitDy=0;entryX=0;entryY=0.083;entryDx=0;entryDy=0;exitPerimeter=0;entryPerimeter=0;" parent="1" source="3fLlHfyGAeuBOlRW-uyx-21" target="3fLlHfyGAeuBOlRW-uyx-32" edge="1">
          <mxGeometry x="0.037" y="-6" width="80" relative="1" as="geometry">
            <mxPoint x="1683" y="866" as="sourcePoint" />
            <mxPoint x="1897" y="870" as="targetPoint" />
            <mxPoint as="offset" />
          </mxGeometry>
        </mxCell>
        <mxCell id="3fLlHfyGAeuBOlRW-uyx-36" value="131070863360" style="html=1;whiteSpace=wrap;perimeterSpacing=0;rounded=1;labelPadding=0;spacingLeft=0;arcSize=50;" parent="1" vertex="1">
          <mxGeometry x="1933" y="970" width="110" height="30" as="geometry" />
        </mxCell>
        <mxCell id="3fLlHfyGAeuBOlRW-uyx-37" value="rico:quantity" style="html=1;verticalAlign=bottom;endArrow=block;curved=0;rounded=0;exitX=0.213;exitY=1.167;exitDx=0;exitDy=0;entryX=0;entryY=0.5;entryDx=0;entryDy=0;exitPerimeter=0;" parent="1" source="3fLlHfyGAeuBOlRW-uyx-21" target="3fLlHfyGAeuBOlRW-uyx-36" edge="1">
          <mxGeometry x="0.037" y="-6" width="80" relative="1" as="geometry">
            <mxPoint x="1602" y="851" as="sourcePoint" />
            <mxPoint x="1913" y="920" as="targetPoint" />
            <mxPoint as="offset" />
          </mxGeometry>
        </mxCell>
      </root>
    </mxGraphModel>
  </diagram>
</mxfile>
